<?xml version="1.0" encoding="utf-8"?>
<!-- Generator: Adobe Illustrator 16.0.0, SVG Export Plug-In . SVG Version: 6.00 Build 0)  -->
<!DOCTYPE svg PUBLIC "-//W3C//DTD SVG 1.1//EN" "http://www.w3.org/Graphics/SVG/1.1/DTD/svg11.dtd">
<svg version="1.1" id="Layer_1" xmlns="http://www.w3.org/2000/svg" xmlns:xlink="http://www.w3.org/1999/xlink" x="0px" y="0px"
	 width="17.4px" height="17.4px" viewBox="0 0 17.4 17.4" style="enable-background:new 0 0 17.4 17.4;" xml:space="preserve">
<style type="text/css">
<![CDATA[
	.st0{clip-path:url(#SVGID_2_);fill:none;stroke:#000000;stroke-width:1.214;stroke-miterlimit:10;}
	.st1{clip-path:url(#SVGID_2_);}
	
		.st2{clip-path:url(#SVGID_2_);fill:none;stroke:#000000;stroke-width:0.971;stroke-linecap:round;stroke-linejoin:round;stroke-miterlimit:10;}
	.st3{clip-path:url(#SVGID_2_);fill:#FFC83D;}
]]>
</style>
<g>
	<defs>
		<rect id="SVGID_1_" y="0" width="17.4" height="17.4"/>
	</defs>
	<clipPath id="SVGID_2_">
		<use xlink:href="#SVGID_1_"  style="overflow:visible;"/>
	</clipPath>
	<path class="st3" d="M16.8,8.7c0-4.5-3.6-8.1-8.1-8.1c-4.5,0-8.1,3.6-8.1,8.1s3.6,8.1,8.1,8.1C13.2,16.8,16.8,13.2,16.8,8.7"/>
	<circle class="st0" cx="8.7" cy="8.7" r="8.1"/>
	<path class="st1" d="M12.4,7.4c0,0.8-0.4,1.4-0.8,1.4c-0.4,0-0.8-0.6-0.8-1.4c0-0.8,0.4-1.4,0.8-1.4C12,6,12.4,6.6,12.4,7.4"/>
	<path class="st1" d="M6.7,7.4c0,0.8-0.4,1.4-0.8,1.4C5.4,8.8,5,8.2,5,7.4C5,6.6,5.4,6,5.8,6C6.3,6,6.7,6.6,6.7,7.4"/>
	<path class="st2" d="M12,11.4c-0.8,0.7-2,1.1-3.3,1.1c-1.4,0-2.6-0.4-3.3-1.1"/>
</g>
</svg>
